<?xml version="1.0" encoding="UTF-8"?>
<svg width="342px" height="342px" viewBox="0 0 342 342" xmlns="http://www.w3.org/2000/svg" xmlns:xlink="http://www.w3.org/1999/xlink" version="1.1">
 <!-- Generated by Pixelmator Pro 1.6.4 -->
 <g id="group">
  <g id="group-1">
   <g id="group-2">
    <path id="Path" d="M128 128 L213.333 128 213.333 213.333 128 213.333 Z" fill="#e74023" fill-opacity="1" stroke="none"/>
    <path id="Path-1" d="M-0 0 L85.333 0 85.333 85.333 -0 85.333 Z" fill="#e74023" fill-opacity="1" stroke="none"/>
    <path id="Path-2" d="M128 256 L213.333 256 213.333 341.333 128 341.333 Z" fill="#e74023" fill-opacity="1" stroke="none"/>
    <path id="Path-3" d="M-0 128 L85.333 128 85.333 213.333 -0 213.333 Z" fill="#e74023" fill-opacity="1" stroke="none"/>
    <path id="Path-4" d="M-0 256 L85.333 256 85.333 341.333 -0 341.333 Z" fill="#e74023" fill-opacity="1" stroke="none"/>
    <path id="Path-5" d="M256 0 L341.333 0 341.333 85.333 256 85.333 Z" fill="#e74023" fill-opacity="1" stroke="none"/>
    <path id="Path-6" d="M128 0 L213.333 0 213.333 85.333 128 85.333 Z" fill="#e74023" fill-opacity="1" stroke="none"/>
    <path id="Path-7" d="M256 128 L341.333 128 341.333 213.333 256 213.333 Z" fill="#e74023" fill-opacity="1" stroke="none"/>
    <path id="Path-8" d="M256 256 L341.333 256 341.333 341.333 256 341.333 Z" fill="#e74023" fill-opacity="1" stroke="none"/>
   </g>
  </g>
 </g>
 <g id="group-3"/>
 <g id="group-4"/>
 <g id="group-5"/>
 <g id="group-6"/>
 <g id="group-7"/>
 <g id="group-8"/>
 <g id="group-9"/>
 <g id="group-10"/>
 <g id="group-11"/>
 <g id="group-12"/>
 <g id="group-13"/>
 <g id="group-14"/>
 <g id="group-15"/>
 <g id="group-16"/>
 <g id="group-17"/>
</svg>
